# xmcd CD database file
#
# Track frame offsets:
#	150
#	19725
#	33547
#	49351
#	64700
#	81666
#	95202
#	114151
#	131942
#	153071
#	174838
#	190741
#
# Disc length: 2723 seconds
#
# Revision: 0
# Processed by: cddbd v1.5.1PL0 Copyright (c) Steve Scherf et al.
# Submitted via: CDex 1.51
#
DISCID=9f0aa10c
DTITLE=Bonnie Whitmore - Picking Up Pieces
DYEAR=2004
DGENRE=Country
TTITLE0=In My Way
TTITLE1=Passing Through
TTITLE2=Cool Chameleon
TTITLE3=Fireflies
TTITLE4=The Hand Of God
TTITLE5=Next Lonely Love Song
TTITLE6=Maybe Someday
TTITLE7=Was It You
TTITLE8=One Drum
TTITLE9=Girl Of Seventeen
TTITLE10=Release Me
TTITLE11=Drive Me Home
EXTD=YEAR: 2004
EXTT0=
EXTT1=
EXTT2=
EXTT3=
EXTT4=
EXTT5=
EXTT6=
EXTT7=
EXTT8=
EXTT9=
EXTT10=
EXTT11=
PLAYORDER=
